<svg id="Layer_1" data-name="Layer 1" xmlns="http://www.w3.org/2000/svg" viewBox="0 0 2048 2048"><defs><style>.cls-1{fill:#eee;}</style></defs><path class="cls-1" d="M1717.59861,392.24859l-65.17222-65.17219a81.91631,81.91631,0,0,0-115.84716,0L1020.675,842.98065,504.77075,327.07642a81.91631,81.91631,0,0,0-115.84717,0L323.7514,392.2486a81.91631,81.91631,0,0,0,0,115.84716L839.65564,1024,323.75141,1539.90429a81.91631,81.91631,0,0,0,0,115.84717l65.17216,65.17214a81.91632,81.91632,0,0,0,115.84716,0l515.90425-515.9043,515.90425,515.90431a81.91633,81.91633,0,0,0,115.84715,0l65.1722-65.17216a81.91631,81.91631,0,0,0,0-115.84718L1201.69434,1024l515.90428-515.90423A81.91632,81.91632,0,0,0,1717.59861,392.24859Z"/></svg>