<svg id="Layer_1" data-name="Layer 1" xmlns="http://www.w3.org/2000/svg" viewBox="0 0 2048 2048"><defs><style>.cls-1{fill:#aaa;}</style></defs><path class="cls-1" d="M1776.471,452.54834l-645.29239,645.29238a56.9113,56.9113,0,0,1-40.24239,16.66895H990.40167a56.91135,56.91135,0,0,1-56.91134-56.91134V957.06378a56.9113,56.9113,0,0,1,16.66895-40.24239L1595.45166,271.529Z"/><path class="cls-1" d="M1534.54675,1056.511v479.48889H512.00012V513.45325H991.48907l256.00007-256.00006H401.27344A145.273,145.273,0,0,0,256.00012,402.72656v1244a145.273,145.273,0,0,0,145.27332,145.27332h1244a145.27292,145.27292,0,0,0,145.27331-145.27332V800.511Z"/><path class="cls-1" d="M1738.98066,53.01934h203.9098a52.0902,52.0902,0,0,1,52.0902,52.0902v151.8196a52.0902,52.0902,0,0,1-52.0902,52.0902h-203.9098a0,0,0,0,1,0,0v-256a0,0,0,0,1,0,0Z" transform="translate(418.82598 1373.17402) rotate(-45)"/></svg>