<svg id="Layer_1" data-name="Layer 1" xmlns="http://www.w3.org/2000/svg" viewBox="0 0 2048 2048"><defs><style>.cls-1{fill:#eee;}</style></defs><path class="cls-1" d="M1308.52963,767.57508,1097.90389,556.94932,1024,483.04542l-73.90389,73.9039L739.47039,767.57508a33.44359,33.44359,0,0,0,0,47.29637l26.60753,26.6075a33.44363,33.44363,0,0,0,47.29636,0L973.09954,681.75363v385.46943a33.44366,33.44366,0,0,0,33.44356,33.44361h37.62877a33.44357,33.44357,0,0,0,33.44355-33.44361V684.46861L1234.62572,841.479a33.44363,33.44363,0,0,0,47.29636,0l26.60755-26.6075A33.44364,33.44364,0,0,0,1308.52963,767.57508Z"/><path class="cls-1" d="M236.18186,1308.63738q0,15.7743-3.94358,26.79837a47.65919,47.65919,0,0,1-10.82988,17.89545,41.089,41.089,0,0,1-16.34192,10.00831,65.03494,65.03494,0,0,1-20.46475,3.10706,98.66534,98.66534,0,0,1-22.94442-2.74856V1253.56182a98.66532,98.66532,0,0,1,22.94442-2.74855,65.03436,65.03436,0,0,1,20.46475,3.122,40.45413,40.45413,0,0,1,16.34192,10.09793,48.40989,48.40989,0,0,1,10.82988,17.98508Q236.18186,1293.01995,236.18186,1308.63738Zm-59.47475,44.23075a77.22773,77.22773,0,0,0,9.366.5527,40.4846,40.4846,0,0,0,14.68383-2.47967,25.65508,25.65508,0,0,0,10.82988-7.88715,38.1551,38.1551,0,0,0,6.78922-13.95188,76.75,76.75,0,0,0,2.39005-20.46475q0-23.12367-8.90292-33.96849-8.90664-10.82242-26.34276-10.82989c-1.59087,0-3.15187.04482-4.683.10457a27.20468,27.20468,0,0,0-4.1303.44813Z"/><path class="cls-1" d="M263.16694,1365.53536V1284.961a115.6739,115.6739,0,0,1,37.80751-6.43818c3.91369,0,7.64814.16432,11.19586.46307a88.98244,88.98244,0,0,1,11.74856,1.927l-2.74855,13.39918a62.89311,62.89311,0,0,0-10.37429-2.10623c-3.00249-.29875-6.27386-.46307-9.82158-.46307a87.27227,87.27227,0,0,0-22.7577,3.122v70.6706Z"/><path class="cls-1" d="M380.63759,1278.34358a47.24652,47.24652,0,0,1,16.06557,2.39,27.52865,27.52865,0,0,1,10.55354,6.6025,23.69784,23.69784,0,0,1,5.69129,10.27719,50.37946,50.37946,0,0,1,1.65063,13.21993v53.23822q-5.33278.91868-14.04151,2.19585a123.39056,123.39056,0,0,1-17.89545,1.28465,76.66632,76.66632,0,0,1-13.58591-1.195,35.25309,35.25309,0,0,1-11.74855-4.21245,23.06266,23.06266,0,0,1-8.26059-8.35022q-3.12573-5.33279-3.122-13.59337a22.66011,22.66011,0,0,1,3.21162-12.38342,25.76343,25.76343,0,0,1,8.26059-8.171,35.89185,35.89185,0,0,1,11.56931-4.49627A63.71635,63.71635,0,0,1,382.109,1313.776a77.17607,77.17607,0,0,1,17.6191,2.0166v-4.22739a33.11639,33.11639,0,0,0-.82157-7.42408,16.71919,16.71919,0,0,0-3.122-6.5278,15.92019,15.92019,0,0,0-6.244-4.67553,25.34649,25.34649,0,0,0-10.18756-1.74771,75.71774,75.71774,0,0,0-13.76516,1.10539,61.6035,61.6035,0,0,0-8.99254,2.21079l-1.83734-12.488q3.11453-1.47883,10.37428-2.56929A103.59649,103.59649,0,0,1,380.63759,1278.34358Zm1.47137,76.3619q5.69128,0,10.18756-.37345a71.235,71.235,0,0,0,7.43154-.9112v-25.33447a43.62861,43.62861,0,0,0-7.06556-1.4639,64.96587,64.96587,0,0,0-8.71619-.5527,51.88189,51.88189,0,0,0-8.26059.64233,22.92689,22.92689,0,0,0-7.16266,2.30042,15.30333,15.30333,0,0,0-5.1386,4.30207,10.81345,10.81345,0,0,0-2.0166,6.70706q0,8.26806,5.5942,11.47221Q372.56372,1354.698,382.109,1354.70548Z"/><path class="cls-1" d="M490.58707,1357.64822a42.56888,42.56888,0,0,1-7.88715,3.122,41.99932,41.99932,0,0,1-12.30125,1.64316,39.01666,39.01666,0,0,1-14.04151-2.47967,30.59412,30.59412,0,0,1-11.38258-7.52864,35.85243,35.85243,0,0,1-7.70789-12.84649,53.79905,53.79905,0,0,1-2.84565-18.44815,53.09484,53.09484,0,0,1,2.65892-17.1635,39.107,39.107,0,0,1,7.71536-13.48881,35.21358,35.21358,0,0,1,12.38342-8.90291,41.40889,41.40889,0,0,1,16.7079-3.21162,97.01625,97.01625,0,0,1,18.81412,1.56847c5.19835,1.0307,9.57511,2.04647,13.12284,3.01743v76.00339q0,19.80748-10.00084,28.63571-10.00458,8.80581-30.19671,8.79834a79.25172,79.25172,0,0,1-26.79837-4.40664l2.756-13.39918a59.74568,59.74568,0,0,0,10.91952,3.31618,66.39922,66.39922,0,0,0,13.4888,1.28465q13.21993,0,18.90376-5.33278,5.69129-5.31038,5.69129-17.25313Zm0-63.88886a43.92139,43.92139,0,0,0-6.05727-1.37427,68.06312,68.06312,0,0,0-10.46391-.64233q-11.74109,0-17.89545,8.08134-6.15063,8.0664-6.1469,21.48052a40.07137,40.07137,0,0,0,1.74026,12.56266,24.44155,24.44155,0,0,0,4.77261,8.634,18.52436,18.52436,0,0,0,6.88632,4.95934,21.99169,21.99169,0,0,0,8.26059,1.55352,34.22012,34.22012,0,0,0,10.74025-1.65809,30.15987,30.15987,0,0,0,8.1635-3.85394Z"/><path class="cls-1" d="M640.18886,1365.53536v-72.508H622.19632v-12.66723h17.99254v-7.70789q0-9.90375,2.74855-16.43155a29.18273,29.18273,0,0,1,7.25229-10.54607,25.74752,25.74752,0,0,1,10.46391-5.69129,46.73593,46.73593,0,0,1,12.57014-1.65809,61.59571,61.59571,0,0,1,13.30955,1.47884,112.36879,112.36879,0,0,1,12.57761,3.4805l-2.756,13.04067a48.71649,48.71649,0,0,0-10.09794-3.49544,52.36473,52.36473,0,0,0-12.29378-1.4639,25.89983,25.89983,0,0,0-7.25229,1.00083,14.48108,14.48108,0,0,0-5.96764,3.49544,16.90169,16.90169,0,0,0-4.0332,6.6025,31.21188,31.21188,0,0,0-1.47137,10.38175v7.5137h34.327v12.66723h-34.327v72.508Z"/><path class="cls-1" d="M736.91841,1293.02741h-24.595v-12.66723h39.65232v52.31208q0,12.68217,3.4805,16.98425,3.49543,4.32449,10.46391,4.317a35.87782,35.87782,0,0,0,9.82158-1.28464,32.87711,32.87711,0,0,0,7.06557-2.74855l2.20332,12.84648c-.73195.35851-1.77012.82158-3.122,1.37428a39.35337,39.35337,0,0,1-4.67553,1.55352,57.54472,57.54472,0,0,1-5.878,1.28465,38.993,38.993,0,0,1-6.69959.5527,35.34608,35.34608,0,0,1-13.39918-2.19585,19.65279,19.65279,0,0,1-8.53694-6.61744,27.25542,27.25542,0,0,1-4.49627-10.91951,79.26925,79.26925,0,0,1-1.28465-15.1469Zm3.854-25.87222a11.59357,11.59357,0,0,1-8.26059-3.31619,13.35723,13.35723,0,0,1,0-17.98508,12.1073,12.1073,0,0,1,16.61827,0,11.99907,11.99907,0,0,1,3.39088,8.99254q0,5.6913-3.39088,8.99254A11.51015,11.51015,0,0,1,740.77236,1267.15519Z"/><path class="cls-1" d="M856.23387,1367.552a35.34612,35.34612,0,0,1-13.39918-2.19585,19.01482,19.01482,0,0,1-8.44731-6.61744,27.95761,27.95761,0,0,1-4.40664-10.91951,79.26844,79.26844,0,0,1-1.28465-15.1469v-80.57435h-24.595v-12.84648h39.65231v93.42083a53.86194,53.86194,0,0,0,.82158,10.47138,17.30989,17.30989,0,0,0,2.5693,6.51287,8.75853,8.75853,0,0,0,4.317,3.39087,17.597,17.597,0,0,0,6.05727.92614,36.85814,36.85814,0,0,0,9.91121-1.28464,32.64043,32.64043,0,0,0,7.1552-2.74855l2.20332,12.84648c-.73195.35851-1.77013.82158-3.122,1.37428a37.43011,37.43011,0,0,1-4.77261,1.55352c-1.82988.493-3.82407.92615-5.96018,1.28465A38.993,38.993,0,0,1,856.23387,1367.552Z"/><path class="cls-1" d="M933.507,1278.34358q17.25313,0,26.61911,10.74026,9.35478,10.73278,9.35852,32.57928v5.33279H908.546q.91868,13.19752,8.71619,20.0913,7.79752,6.87885,21.93612,6.88631a63.75463,63.75463,0,0,0,13.76516-1.28464,39.99353,39.99353,0,0,0,8.62656-2.74855l2.02407,12.84648a45.90469,45.90469,0,0,1-9.91121,3.122,72.79928,72.79928,0,0,1-16.1552,1.64315,51.30356,51.30356,0,0,1-19.36682-3.39087,38.444,38.444,0,0,1-13.85479-9.27636,37.75707,37.75707,0,0,1-8.26059-14.04151,54.9934,54.9934,0,0,1-2.756-17.7162,51.78836,51.78836,0,0,1,3.488-19.82242,40.86109,40.86109,0,0,1,9.17927-13.95188,37.75261,37.75261,0,0,1,12.84648-8.24565A40.54483,40.54483,0,0,1,933.507,1278.34358Zm20.56185,36.3436q0-10.82241-5.6913-17.1635-5.69128-6.31867-15.0498-6.33361a22.27186,22.27186,0,0,0-9.64233,2.03153,24.0144,24.0144,0,0,0-7.43155,5.31785,25.69908,25.69908,0,0,0-4.95934,7.52864,31.42337,31.42337,0,0,0-2.38257,8.61909Z"/><path class="cls-1" d="M1114.12705,1280.36018h35.97763v12.66723h-35.97763v39.64485a48.67364,48.67364,0,0,0,.91868,10.47138,15.07727,15.07727,0,0,0,3.02489,6.51287,10.56105,10.56105,0,0,0,5.415,3.39087,29.91388,29.91388,0,0,0,8.08133.92614,36.60873,36.60873,0,0,0,18.35106-4.03319l2.20332,12.84648q-2.56557,1.09792-8.16349,2.9278a44.99478,44.99478,0,0,1-13.86226,1.83735q-9.54524,0-15.6025-2.19585a20.39758,20.39758,0,0,1-9.45561-6.61744,25.63016,25.63016,0,0,1-4.67552-10.91951,78.6677,78.6677,0,0,1-1.28465-15.1469v-39.64485H1081.0847v-12.66723h17.99255v-23.85562l15.0498-2.5693Z"/><path class="cls-1" d="M1245.7363,1322.94777a55.29312,55.29312,0,0,1-2.84564,18.2689,42.221,42.221,0,0,1-7.98424,14.0415,35.38863,35.38863,0,0,1-12.30126,9.08217,37.74845,37.74845,0,0,1-15.6025,3.21162,36.69057,36.69057,0,0,1-15.32616-3.21162,35.58779,35.58779,0,0,1-12.20416-9.08217,42.09222,42.09222,0,0,1-7.98424-14.0415,55.29286,55.29286,0,0,1-2.84564-18.2689,56.15818,56.15818,0,0,1,2.84564-18.35852,40.9431,40.9431,0,0,1,7.98424-14.04151,36.31318,36.31318,0,0,1,12.20416-8.99254,36.69057,36.69057,0,0,1,15.32616-3.21162,37.74845,37.74845,0,0,1,15.6025,3.21162,36.10278,36.10278,0,0,1,12.30126,8.99254,41.06466,41.06466,0,0,1,7.98424,14.04151A56.15845,56.15845,0,0,1,1245.7363,1322.94777Zm-15.6025,0q0-14.49711-6.244-22.85479a20.00824,20.00824,0,0,0-16.88715-8.35022,19.59791,19.59791,0,0,0-16.61081,8.35022q-6.15063,8.35769-6.14689,22.85479,0,14.31786,6.14689,22.67554a19.56118,19.56118,0,0,0,16.61081,8.35021,19.97074,19.97074,0,0,0,16.88715-8.35021Q1230.13007,1337.26563,1230.1338,1322.94777Z"/><path class="cls-1" d="M1379.36215,1293.02741h-24.595v-12.66723h39.65231v52.31208q0,12.68217,3.4805,16.98425,3.49545,4.32449,10.46391,4.317a35.87784,35.87784,0,0,0,9.82159-1.28464,32.87732,32.87732,0,0,0,7.06557-2.74855l2.20332,12.84648c-.732.35851-1.77013.82158-3.122,1.37428a39.35317,39.35317,0,0,1-4.67552,1.55352,57.54472,57.54472,0,0,1-5.878,1.28465,38.993,38.993,0,0,1-6.69959.5527,35.34614,35.34614,0,0,1-13.39919-2.19585,19.65276,19.65276,0,0,1-8.53693-6.61744,27.25542,27.25542,0,0,1-4.49627-10.91951,79.26844,79.26844,0,0,1-1.28465-15.1469Zm3.85394-25.87222a11.59356,11.59356,0,0,1-8.26058-3.31619,13.3572,13.3572,0,0,1,0-17.98508,12.1073,12.1073,0,0,1,16.61827,0,11.99907,11.99907,0,0,1,3.39087,8.99254q0,5.6913-3.39087,8.99254A11.51016,11.51016,0,0,1,1383.21609,1267.15519Z"/><path class="cls-1" d="M1444.16221,1282.75022a58.1967,58.1967,0,0,1,20.7411-4.22739,31.2773,31.2773,0,0,1,10.00083,1.56847,20.06335,20.06335,0,0,1,7.98424,4.86971q7.88715-6.43071,16.88716-6.43818a21.33318,21.33318,0,0,1,8.35021,1.6581,19.678,19.678,0,0,1,6.97594,4.95934,24.71434,24.71434,0,0,1,4.86971,8.26059,33.36046,33.36046,0,0,1,1.82988,11.56183v60.57267h-13.76516v-60.94611q0-6.61-2.93527-10.083a9.20278,9.20278,0,0,0-7.34191-3.49544,10.9889,10.9889,0,0,0-4.59337,1.1054,12.90969,12.90969,0,0,0-4.39917,3.4805,37.303,37.303,0,0,1,1.09792,9.366v27.70957h-13.76515v-27.88882q0-6.43071-2.0166-10.09794-2.0278-3.67469-7.89462-3.67469a24.58265,24.58265,0,0,0-8.26058,1.65809v72.86646h-13.76516Z"/><path class="cls-1" d="M1612.847,1323.127a61.54234,61.54234,0,0,1-2.47967,17.91039,41.66845,41.66845,0,0,1-7.1552,14.04151,32.82906,32.82906,0,0,1-11.47221,9.17179,34.93252,34.93252,0,0,1-15.42325,3.30125,39.34894,39.34894,0,0,1-11.92781-1.64315,25.22375,25.22375,0,0,1-7.70789-3.6747v33.595h-15.23653V1282.92948c3.30125-.971,7.55105-1.95685,12.75686-2.92781a96.80235,96.80235,0,0,1,17.89545-1.47884,43.3202,43.3202,0,0,1,16.7079,3.122,36.16556,36.16556,0,0,1,12.84649,8.90291,40.631,40.631,0,0,1,8.26059,14.04151A55.16636,55.16636,0,0,1,1612.847,1323.127Zm-15.60251,0q0-14.85561-6.97594-23.034a22.78473,22.78473,0,0,0-18.1718-8.156,69.75043,69.75043,0,0,0-9.82158.53776,32.37015,32.37015,0,0,0-5.5942,1.28465v53.79092a24.97022,24.97022,0,0,0,7.52117,4.40665,27.04616,27.04616,0,0,0,10.28466,2.01659,21.03907,21.03907,0,0,0,10.36681-2.39,19.956,19.956,0,0,0,7.06557-6.51287,29.03658,29.03658,0,0,0,4.04067-9.72449A54.97306,54.97306,0,0,0,1597.2445,1323.127Z"/><path class="cls-1" d="M1704.62468,1322.94777a55.29286,55.29286,0,0,1-2.84564,18.2689,42.221,42.221,0,0,1-7.98424,14.0415,35.38863,35.38863,0,0,1-12.30126,9.08217,37.74845,37.74845,0,0,1-15.6025,3.21162,36.69057,36.69057,0,0,1-15.32616-3.21162,35.58788,35.58788,0,0,1-12.20416-9.08217,42.09239,42.09239,0,0,1-7.98424-14.0415,55.29312,55.29312,0,0,1-2.84564-18.2689,56.15845,56.15845,0,0,1,2.84564-18.35852,40.94326,40.94326,0,0,1,7.98424-14.04151,36.31328,36.31328,0,0,1,12.20416-8.99254,36.69057,36.69057,0,0,1,15.32616-3.21162,37.74845,37.74845,0,0,1,15.6025,3.21162,36.10278,36.10278,0,0,1,12.30126,8.99254,41.06466,41.06466,0,0,1,7.98424,14.04151A56.15818,56.15818,0,0,1,1704.62468,1322.94777Zm-15.6025,0q0-14.49711-6.244-22.85479a20.00824,20.00824,0,0,0-16.88715-8.35022,19.59789,19.59789,0,0,0-16.6108,8.35022q-6.15063,8.35769-6.1469,22.85479,0,14.31786,6.1469,22.67554a19.56116,19.56116,0,0,0,16.6108,8.35021,19.97074,19.97074,0,0,0,16.88715-8.35021Q1689.01845,1337.26563,1689.02218,1322.94777Z"/><path class="cls-1" d="M1731.60977,1365.53536V1284.961a115.67389,115.67389,0,0,1,37.8075-6.43818c3.9137,0,7.64814.16432,11.19587.46307a88.982,88.982,0,0,1,11.74855,1.927l-2.74855,13.39918a62.893,62.893,0,0,0-10.37428-2.10623c-3.00249-.29875-6.27386-.46307-9.82159-.46307a87.27225,87.27225,0,0,0-22.75769,3.122v70.6706Z"/><path class="cls-1" d="M1848.34847,1280.36018h35.97762v12.66723h-35.97762v39.64485a48.67372,48.67372,0,0,0,.91867,10.47138,15.0774,15.0774,0,0,0,3.0249,6.51287,10.561,10.561,0,0,0,5.41494,3.39087,29.91391,29.91391,0,0,0,8.08134.92614,36.60873,36.60873,0,0,0,18.351-4.03319l2.20332,12.84648q-2.56556,1.09792-8.16349,2.9278a44.99467,44.99467,0,0,1-13.86225,1.83735q-9.54525,0-15.60251-2.19585a20.39758,20.39758,0,0,1-9.45561-6.61744,25.63016,25.63016,0,0,1-4.67552-10.91951,78.66849,78.66849,0,0,1-1.28465-15.1469v-39.64485h-17.99255v-12.66723h17.99255v-23.85562l15.04981-2.5693Z"/></svg>