<svg id="Layer_1" data-name="Layer 1" xmlns="http://www.w3.org/2000/svg" viewBox="0 0 2048 2048"><defs><style>.cls-1,.cls-2{fill:none;stroke:#eee;stroke-miterlimit:10;stroke-width:64px;}.cls-2{stroke-dasharray:285.03091 218.22681;}.cls-3{fill:#f95959;}</style></defs><polyline class="cls-1" points="2016 1888 2016 2016 1888 2016"/><line class="cls-2" x1="1669.77319" y1="2016" x2="269.1134" y2="2016"/><polyline class="cls-1" points="160 2016 32 2016 32 1888"/><line class="cls-2" x1="32" y1="1669.77319" x2="32" y2="269.1134"/><polyline class="cls-1" points="32 160 32 32 160 32"/><line class="cls-2" x1="378.22681" y1="32" x2="1778.8866" y2="32"/><polyline class="cls-1" points="1888 32 2016 32 2016 160"/><line class="cls-2" x1="2016" y1="378.22681" x2="2016" y2="1778.8866"/><path class="cls-3" d="M1308.52963,793.719,1097.90389,583.09327,1024,509.18938l-73.90389,73.90389L739.47039,793.719a33.44358,33.44358,0,0,0,0,47.29636l26.60753,26.6075a33.44363,33.44363,0,0,0,47.29636,0L973.09954,707.89759V1093.367a33.44365,33.44365,0,0,0,33.44356,33.4436h37.62877a33.44356,33.44356,0,0,0,33.44355-33.4436V710.61256l157.0103,157.01034a33.44363,33.44363,0,0,0,47.29636,0l26.60755-26.6075A33.44363,33.44363,0,0,0,1308.52963,793.719Z"/><path class="cls-3" d="M539.34387,1475.7072a1.98833,1.98833,0,0,1-.322,1.12683,2.15371,2.15371,0,0,1-1.12683.76463,12.16443,12.16443,0,0,1-2.13292.48293,27.49044,27.49044,0,0,1-6.64023,0,12.11928,12.11928,0,0,1-2.17316-.48293,2.1434,2.1434,0,0,1-1.12683-.76463,1.97863,1.97863,0,0,1-.322-1.12683v-99.96561a1.82705,1.82705,0,0,1,.36219-1.12682,2.41783,2.41783,0,0,1,1.20732-.76464,13.4888,13.4888,0,0,1,2.17316-.48292,21.69553,21.69553,0,0,1,3.17926-.20122,23.06159,23.06159,0,0,1,3.34024.20122,12.27927,12.27927,0,0,1,2.13292.48292,2.16094,2.16094,0,0,1,1.12683.76464,1.99121,1.99121,0,0,1,.322,1.12682Z"/><path class="cls-3" d="M627.88024,1475.78769a1.79976,1.79976,0,0,1-.32195,1.08658,2.51789,2.51789,0,0,1-1.04634.76463,7.42787,7.42787,0,0,1-2.01219.48293,26.78449,26.78449,0,0,1-3.21951.161,27.607,27.607,0,0,1-3.3-.161,7.4157,7.4157,0,0,1-2.01219-.48293,2.50957,2.50957,0,0,1-1.04634-.76463,1.79137,1.79137,0,0,1-.322-1.08658v-42.417a41.70669,41.70669,0,0,0-.96585-9.98046,20.67526,20.67526,0,0,0-2.81707-6.5195,12.23142,12.23142,0,0,0-4.789-4.18535,15.19488,15.19488,0,0,0-6.8012-1.44878,17.16858,17.16858,0,0,0-9.98046,3.54145,54.0836,54.0836,0,0,0-10.46339,10.3829v50.62671a1.79976,1.79976,0,0,1-.32195,1.08658,2.51789,2.51789,0,0,1-1.04634.76463,7.42787,7.42787,0,0,1-2.01219.48293,27.63644,27.63644,0,0,1-3.3.161,26.76982,26.76982,0,0,1-3.21951-.161,8.03411,8.03411,0,0,1-2.05243-.48293,2.19732,2.19732,0,0,1-1.04634-.76463,1.97294,1.97294,0,0,1-.28171-1.08658v-72.43885a2.24573,2.24573,0,0,1,.24146-1.08658,2.14911,2.14911,0,0,1,.96586-.80488,5.45624,5.45624,0,0,1,1.85121-.48292,29.18671,29.18671,0,0,1,2.978-.12073q1.76948,0,2.9378.12073a4.76105,4.76105,0,0,1,1.811.48292,2.557,2.557,0,0,1,.92561.80488,1.98962,1.98962,0,0,1,.2817,1.08658v9.578a44.53553,44.53553,0,0,1,12.19388-10.02071,26.23539,26.23539,0,0,1,12.27436-3.17926,27.28557,27.28557,0,0,1,12.19387,2.45487,21.96593,21.96593,0,0,1,8.00852,6.55974,26.14633,26.14633,0,0,1,4.38657,9.61827,57.25287,57.25287,0,0,1,1.328,13.24021Z"/><path class="cls-3" d="M708.77028,1403.18787a6.308,6.308,0,0,1-.04024.68414q-.04151.36219-.12073.76463c-.05408.26913-.12073.56342-.20122.88537s-.17481.67157-.28171,1.04634l-24.70969,68.8169a4.21408,4.21408,0,0,1-.84512,1.44878,3.50066,3.50066,0,0,1-1.56951.88536,12.43479,12.43479,0,0,1-2.65609.44268q-1.611.12073-4.02438.12074-2.41464,0-4.02438-.161a13.19457,13.19457,0,0,1-2.61585-.48293,3.80328,3.80328,0,0,1-1.56951-.88536,3.98653,3.98653,0,0,1-.88536-1.36829l-24.62921-68.8169q-.32257-.96585-.52317-1.69024a7.53614,7.53614,0,0,1-.24146-1.08659,5.42983,5.42983,0,0,1-.04025-.60365,1.98148,1.98148,0,0,1,.32195-1.12683,2.1378,2.1378,0,0,1,1.08659-.76463,7.34325,7.34325,0,0,1,2.01219-.3622q1.24692-.07923,3.09877-.08048,2.3335,0,3.74267.12073a7.49954,7.49954,0,0,1,2.17317.44268,2.66129,2.66129,0,0,1,1.12683.80488,6.26172,6.26172,0,0,1,.68414,1.20731l20.44385,59.72181.322.96585.24147-.96585,20.20239-59.72181a2.786,2.786,0,0,1,.56341-1.20731,2.99375,2.99375,0,0,1,1.16707-.80488,7.25933,7.25933,0,0,1,2.09268-.44268q1.328-.12073,3.50121-.12073,1.85058,0,3.05853.08048a5.4169,5.4169,0,0,1,1.89146.40244,2.245,2.245,0,0,1,.96585.76463A1.98968,1.98968,0,0,1,708.77028,1403.18787Z"/><path class="cls-3" d="M775.97744,1475.86818a1.69654,1.69654,0,0,1-.6439,1.44877,4.5248,4.5248,0,0,1-1.77073.72439,16.89116,16.89116,0,0,1-3.3.24147,18.32954,18.32954,0,0,1-3.34024-.24147,3.95333,3.95333,0,0,1-1.811-.72439,1.80206,1.80206,0,0,1-.56341-1.44877v-7.24389a35.77246,35.77246,0,0,1-10.58412,7.88779,28.06943,28.06943,0,0,1-12.35485,2.81706,33.67445,33.67445,0,0,1-10.34266-1.489,22.35,22.35,0,0,1-7.88779-4.30608,19.31188,19.31188,0,0,1-5.07072-6.92194,22.90972,22.90972,0,0,1-1.811-9.33656,21.59725,21.59725,0,0,1,2.49512-10.62436,20.74523,20.74523,0,0,1,7.1634-7.48535,35.2262,35.2262,0,0,1,11.42924-4.46706,70.996,70.996,0,0,1,15.21215-1.489h9.98047v-5.63414a28.03945,28.03945,0,0,0-.88537-7.40486,12.70773,12.70773,0,0,0-2.85731-5.35242,12.29018,12.29018,0,0,0-5.111-3.21951,23.82561,23.82561,0,0,0-7.72681-1.08658,30.77555,30.77555,0,0,0-8.81339,1.16707,47.19929,47.19929,0,0,0-6.84145,2.5756q-2.93906,1.40916-4.90974,2.57561a6.77488,6.77488,0,0,1-2.9378,1.16707,1.97863,1.97863,0,0,1-1.12683-.322,2.7318,2.7318,0,0,1-.84512-.96585,4.95788,4.95788,0,0,1-.52317-1.65,13.95362,13.95362,0,0,1-.161-2.21341,14.10877,14.10877,0,0,1,.28171-3.17926,4.60524,4.60524,0,0,1,1.36828-2.21341,17.564,17.564,0,0,1,3.74268-2.45487,41.262,41.262,0,0,1,6.11706-2.5756,55.73055,55.73055,0,0,1,7.56583-1.93171,45.20868,45.20868,0,0,1,8.29023-.76463,43.52412,43.52412,0,0,1,13.28045,1.77073,21.49752,21.49752,0,0,1,8.85364,5.19145,20.1089,20.1089,0,0,1,4.90974,8.49144,41.146,41.146,0,0,1,1.52927,11.83168Zm-13.2-33.08041H751.42872a42.84178,42.84178,0,0,0-9.49754.92561,19.56526,19.56526,0,0,0-6.68047,2.73658,11.31431,11.31431,0,0,0-3.90365,4.34633,13.0442,13.0442,0,0,0-1.24756,5.83535,11.67807,11.67807,0,0,0,3.5817,8.97437q3.58044,3.34086,10.02071,3.34023a18.64071,18.64071,0,0,0,9.69875-2.65609,41.78137,41.78137,0,0,0,9.37681-8.12925Z"/><path class="cls-3" d="M813.64564,1475.78769a1.79976,1.79976,0,0,1-.32195,1.08658,2.51789,2.51789,0,0,1-1.04634.76463,7.42787,7.42787,0,0,1-2.01219.48293,27.63644,27.63644,0,0,1-3.3.161,26.76982,26.76982,0,0,1-3.21951-.161,8.03411,8.03411,0,0,1-2.05243-.48293,2.19732,2.19732,0,0,1-1.04634-.76463,1.973,1.973,0,0,1-.28171-1.08658V1368.25625a2.18862,2.18862,0,0,1,.28171-1.12683,2.09117,2.09117,0,0,1,1.04634-.80488,8.03458,8.03458,0,0,1,2.05243-.48292,26.76982,26.76982,0,0,1,3.21951-.161,27.63644,27.63644,0,0,1,3.3.161,7.42829,7.42829,0,0,1,2.01219.48292,2.37268,2.37268,0,0,1,1.04634.80488,1.99122,1.99122,0,0,1,.32195,1.12683Z"/><path class="cls-3" d="M853.00408,1378.88061q0,4.66892-1.77073,6.35852-1.77135,1.69025-6.5195,1.69024-4.6689,0-6.39876-1.65-1.73175-1.64873-1.73049-6.23778,0-4.667,1.77073-6.35853,1.76948-1.69023,6.5195-1.69024,4.667,0,6.39876,1.65Q853.00345,1374.29345,853.00408,1378.88061Zm-1.52927,96.90708a1.7997,1.7997,0,0,1-.322,1.08658,2.51776,2.51776,0,0,1-1.04634.76463,7.42767,7.42767,0,0,1-2.01219.48293,27.63633,27.63633,0,0,1-3.3.161,26.76964,26.76964,0,0,1-3.2195-.161,8.0342,8.0342,0,0,1-2.05244-.48293,2.19742,2.19742,0,0,1-1.04634-.76463,1.973,1.973,0,0,1-.2817-1.08658v-72.43885a2.0348,2.0348,0,0,1,.2817-1.04634,2.09119,2.09119,0,0,1,1.04634-.80487,8.03463,8.03463,0,0,1,2.05244-.48293,26.7699,26.7699,0,0,1,3.2195-.161,27.63662,27.63662,0,0,1,3.3.161,7.428,7.428,0,0,1,2.01219.48293,2.37248,2.37248,0,0,1,1.04634.80487,1.858,1.858,0,0,1,.322,1.04634Z"/><path class="cls-3" d="M938.07948,1475.78769a2.19767,2.19767,0,0,1-.28171,1.12683,1.90711,1.90711,0,0,1-.96585.76463,7.82675,7.82675,0,0,1-1.811.44268,19.82879,19.82879,0,0,1-2.73658.161,20.52989,20.52989,0,0,1-2.81707-.161,8.595,8.595,0,0,1-1.85121-.44268,2.13078,2.13078,0,0,1-1.04634-.76463,1.97863,1.97863,0,0,1-.322-1.12683v-9.578a48.93214,48.93214,0,0,1-11.87192,9.65852,27.05774,27.05774,0,0,1-13.48168,3.461,27.85453,27.85453,0,0,1-13.6024-3.09877,25.58905,25.58905,0,0,1-9.13535-8.37071,36.86305,36.86305,0,0,1-5.111-12.39509,67.87717,67.87717,0,0,1-1.60975-15.01094,65.2968,65.2968,0,0,1,2.01219-16.86215,37.56336,37.56336,0,0,1,5.95608-12.83778,26.59508,26.59508,0,0,1,9.77925-8.16949,30.2998,30.2998,0,0,1,13.48167-2.85731,24.57282,24.57282,0,0,1,11.63046,2.77682,41.28036,41.28036,0,0,1,10.42315,8.1695v-42.095a2.2582,2.2582,0,0,1,.2817-1.08659,1.85672,1.85672,0,0,1,1.08658-.80487,12.31455,12.31455,0,0,1,2.05244-.48293,20.69593,20.69593,0,0,1,3.17926-.20122,22.21131,22.21131,0,0,1,3.3.20122,10.14123,10.14123,0,0,1,2.01219.48293,2.28473,2.28473,0,0,1,1.08658.80487,1.88722,1.88722,0,0,1,.3622,1.08659ZM924.71854,1424.839a52.44247,52.44247,0,0,0-10.42315-10.18168,18.12512,18.12512,0,0,0-10.50363-3.50121,14.92216,14.92216,0,0,0-8.61218,2.41463,18.53121,18.53121,0,0,0-5.75486,6.35852,30.38369,30.38369,0,0,0-3.2195,8.93412,51.13526,51.13526,0,0,0-1.0061,10.14144,67.01467,67.01467,0,0,0,.84512,10.70485,30.94609,30.94609,0,0,0,2.9378,9.29632,17.82449,17.82449,0,0,0,5.55364,6.5195,14.64651,14.64651,0,0,0,8.69266,2.45487,17.96844,17.96844,0,0,0,5.111-.72439,19.09923,19.09923,0,0,0,5.03047-2.41462,38.42311,38.42311,0,0,0,5.39267-4.38658,66.80618,66.80618,0,0,0,5.95609-6.64023Z"/><path class="cls-3" d="M1062.59381,1475.78769a1.79976,1.79976,0,0,1-.322,1.08658,2.50677,2.50677,0,0,1-1.08659.76463,8.06079,8.06079,0,0,1-2.05243.48293,32.27459,32.27459,0,0,1-6.439,0,8.03411,8.03411,0,0,1-2.05243-.48293,2.49132,2.49132,0,0,1-1.08658-.76463,1.7913,1.7913,0,0,1-.322-1.08658V1412.283h-32.517v63.50472a1.7997,1.7997,0,0,1-.322,1.08658,2.50673,2.50673,0,0,1-1.08658.76463,8.06088,8.06088,0,0,1-2.05244.48293,32.27449,32.27449,0,0,1-6.439,0,8.0342,8.0342,0,0,1-2.05244-.48293,2.49138,2.49138,0,0,1-1.08658-.76463,1.79137,1.79137,0,0,1-.322-1.08658V1412.283H993.133a2.06116,2.06116,0,0,1-1.9317-1.2878,9.95939,9.95939,0,0,1-.6439-4.18536,17.231,17.231,0,0,1,.161-2.5756,6.3631,6.3631,0,0,1,.48293-1.73049,2.11084,2.11084,0,0,1,.80488-.96585,2.19776,2.19776,0,0,1,1.12682-.28171h10.22193v-7.80729a49.64086,49.64086,0,0,1,1.44878-12.83778,23.148,23.148,0,0,1,4.30608-8.81339,17.099,17.099,0,0,1,7.08291-5.111,26.54365,26.54365,0,0,1,9.69876-1.65q1.76948,0,3.54145.161a25.65843,25.65843,0,0,1,5.75487,1.16707,3.95614,3.95614,0,0,1,1.489.76463,3.7679,3.7679,0,0,1,.6439.84512,4.66633,4.66633,0,0,1,.40244,1.08658,10.44533,10.44533,0,0,1,.24146,1.60975q.07923.96585.08049,2.33414a12.10309,12.10309,0,0,1-.40244,3.70243,1.42624,1.42624,0,0,1-1.36829,1.12683,3.45541,3.45541,0,0,1-1.328-.28171q-.68476-.28107-1.73048-.60365a24.29942,24.29942,0,0,0-2.53536-.60366,20.71074,20.71074,0,0,0-3.74267-.28171q-5.55364,0-7.88779,4.10487-2.3354,4.10487-2.33414,13.11948v7.96827h41.77307a4.03141,4.03141,0,0,1,3.09877,1.08659,4.27506,4.27506,0,0,1,1.0061,3.01828Zm1.44877-96.82659a16.71881,16.71881,0,0,1-.36219,3.78292,5.19982,5.19982,0,0,1-1.24756,2.45487,5.03376,5.03376,0,0,1-2.45487,1.328,16.37491,16.37491,0,0,1-3.98414.40244,15.96427,15.96427,0,0,1-3.90364-.40244,4.86422,4.86422,0,0,1-3.82317-3.78291,15.0705,15.0705,0,0,1-.40243-3.78292,14.60189,14.60189,0,0,1,.40243-3.74268,5.87877,5.87877,0,0,1,1.32805-2.49511,4.73164,4.73164,0,0,1,2.49512-1.36829,17.71438,17.71438,0,0,1,3.90364-.3622,18.17144,18.17144,0,0,1,3.98414.3622,4.51692,4.51692,0,0,1,2.45487,1.36829,5.77942,5.77942,0,0,1,1.24756,2.49511A16.19653,16.19653,0,0,1,1064.04258,1378.9611Z"/><path class="cls-3" d="M1100.423,1475.78769a1.7997,1.7997,0,0,1-.322,1.08658,2.51776,2.51776,0,0,1-1.04634.76463,7.42767,7.42767,0,0,1-2.01219.48293,27.63633,27.63633,0,0,1-3.3.161,26.76964,26.76964,0,0,1-3.2195-.161,8.0342,8.0342,0,0,1-2.05244-.48293,2.19734,2.19734,0,0,1-1.04633-.76463,1.97294,1.97294,0,0,1-.28171-1.08658V1368.25625a2.18853,2.18853,0,0,1,.28171-1.12683,2.09118,2.09118,0,0,1,1.04633-.80488,8.03467,8.03467,0,0,1,2.05244-.48292,26.76964,26.76964,0,0,1,3.2195-.161,27.63633,27.63633,0,0,1,3.3.161,7.42809,7.42809,0,0,1,2.01219.48292,2.37257,2.37257,0,0,1,1.04634.80488,1.99114,1.99114,0,0,1,.322,1.12683Z"/><path class="cls-3" d="M1186.78619,1436.42925q0,3.139-1.57706,4.46706a5.42811,5.42811,0,0,1-3.598,1.328h-47.70526a44.68621,44.68621,0,0,0,1.21234,10.86582,20.94112,20.94112,0,0,0,4.04451,8.29023,18.17882,18.17882,0,0,0,7.35958,5.31218,29.31883,29.31883,0,0,0,11.08088,1.85122,45.32965,45.32965,0,0,0,9.21961-.84512,54.52348,54.52348,0,0,0,6.99613-1.89146q2.95225-1.04508,4.85315-1.89146a7.9578,7.9578,0,0,1,2.8724-.84512,1.85,1.85,0,0,1,1.00987.2817,1.82291,1.82291,0,0,1,.68792.84512,5.90966,5.90966,0,0,1,.36345,1.56951,21.05041,21.05041,0,0,1,.122,2.45487,17.82012,17.82012,0,0,1-.08049,1.811q-.08112.76588-.20122,1.36829a3.51293,3.51293,0,0,1-.40244,1.08658,4.609,4.609,0,0,1-.72439.92561,11.80962,11.80962,0,0,1-2.61584,1.44877,38.05246,38.05246,0,0,1-5.63413,1.97195,78.8107,78.8107,0,0,1-8.00852,1.73048,58.55893,58.55893,0,0,1-9.69876.76463,44.90424,44.90424,0,0,1-15.65484-2.49511,29.02538,29.02538,0,0,1-11.30851-7.40486,31.64443,31.64443,0,0,1-6.92193-12.31461,57.37506,57.37506,0,0,1-2.33414-17.22434,54.27271,54.27271,0,0,1,2.41463-16.78167,35.54589,35.54589,0,0,1,6.96217-12.63655,30.41554,30.41554,0,0,1,10.98656-7.96828,36.026,36.026,0,0,1,14.40728-2.77682,34.856,34.856,0,0,1,14.528,2.73658,27.47575,27.47575,0,0,1,9.85973,7.36462,29.62062,29.62062,0,0,1,5.67438,10.86582,47.57322,47.57322,0,0,1,1.811,13.3207Zm-13.361-3.94389q.24147-10.46214-4.657-16.41948-4.899-5.95545-14.53556-5.95608a19.239,19.239,0,0,0-8.665,1.85122,18.7536,18.7536,0,0,0-6.23653,4.90974,22.48285,22.48285,0,0,0-3.8873,7.12315,29.71559,29.71559,0,0,0-1.53807,8.49145Z"/><path class="cls-3" d="M1281.92254,1470.47551a16.90306,16.90306,0,0,1-.322,3.70243,4.15038,4.15038,0,0,1-.96585,2.01219,6.29982,6.29982,0,0,1-1.9317,1.20731,15.77492,15.77492,0,0,1-2.9378.92561q-1.65063.36219-3.50121.60366a28.612,28.612,0,0,1-3.70243.24146,27.90072,27.90072,0,0,1-9.65852-1.489,15.59731,15.59731,0,0,1-6.6-4.50731,18.5467,18.5467,0,0,1-3.74267-7.64632,44.95377,44.95377,0,0,1-1.16707-10.90607V1412.283h-10.14144a2.17107,2.17107,0,0,1-1.93171-1.2878,8.98591,8.98591,0,0,1-.72438-4.18536,13.89739,13.89739,0,0,1,.20122-2.5756,7.347,7.347,0,0,1,.52316-1.73049,2.02068,2.02068,0,0,1,.84512-.96585,2.42314,2.42314,0,0,1,1.16707-.28171h10.061v-17.22434a2.0348,2.0348,0,0,1,.2817-1.04634,2.29217,2.29217,0,0,1,1.04634-.84512,6.898,6.898,0,0,1,2.05244-.52317,26.76964,26.76964,0,0,1,3.2195-.161,27.63633,27.63633,0,0,1,3.3.161,6.40391,6.40391,0,0,1,2.01219.52317,2.63494,2.63494,0,0,1,1.04634.84512,1.858,1.858,0,0,1,.322,1.04634v17.22434h18.59264a2.201,2.201,0,0,1,1.12683.28171,2.35266,2.35266,0,0,1,.84512.96585,5.52945,5.52945,0,0,1,.52316,1.73049,17.39992,17.39992,0,0,1,.161,2.5756,8.98575,8.98575,0,0,1-.72439,4.18536,2.17105,2.17105,0,0,1-1.9317,1.2878h-18.59264v40.40478q0,7.48534,2.21341,11.30851,2.21278,3.82379,7.928,3.82316a13.65472,13.65472,0,0,0,3.3-.3622q1.44877-.36219,2.57561-.76463,1.12619-.40181,1.9317-.76463a3.57947,3.57947,0,0,1,1.44877-.3622,1.56176,1.56176,0,0,1,.76464.20122,1.34557,1.34557,0,0,1,.56341.76463,9.42437,9.42437,0,0,1,.36219,1.52927A15.12146,15.12146,0,0,1,1281.92254,1470.47551Z"/><path class="cls-3" d="M1332.46876,1477.79988l-9.65852,26.6414a3.6635,3.6635,0,0,1-2.45487,1.97194,19.58545,19.58545,0,0,1-5.99632.68415,22.87327,22.87327,0,0,1-3.38048-.20122,4.69174,4.69174,0,0,1-1.97195-.68414,1.72408,1.72408,0,0,1-.76463-1.28781,4.01418,4.01418,0,0,1,.40244-1.9317l9.98046-25.19262a4.46664,4.46664,0,0,1-2.25365-2.5756l-25.83653-69.21935a8.04349,8.04349,0,0,1-.6439-2.65609,1.92588,1.92588,0,0,1,.6439-1.52926,4.03511,4.03511,0,0,1,2.09268-.76463,29.51788,29.51788,0,0,1,3.86341-.20122q2.41463,0,3.78291.12073a7.91451,7.91451,0,0,1,2.17317.44268,2.29813,2.29813,0,0,1,1.16707.92561,11.04849,11.04849,0,0,1,.76463,1.65l20.68532,58.11206h.24146l19.96093-58.434a3.59327,3.59327,0,0,1,1.16707-1.97194,5.28713,5.28713,0,0,1,2.05243-.6439,29.187,29.187,0,0,1,3.94389-.20122,27.96547,27.96547,0,0,1,3.70243.20122,4.30231,4.30231,0,0,1,2.13293.76463,1.87952,1.87952,0,0,1,.68414,1.52926,7.94477,7.94477,0,0,1-.48293,2.41463Z"/><path class="cls-3" d="M1440.72459,1438.44144a65.22854,65.22854,0,0,1-2.05243,17.06337,37.19608,37.19608,0,0,1-6.03657,12.83778,27.00553,27.00553,0,0,1-9.85974,8.12924,30.37435,30.37435,0,0,1-13.44143,2.85731,26.00048,26.00048,0,0,1-5.95608-.6439,22.75527,22.75527,0,0,1-5.35243-2.01219,31.08045,31.08045,0,0,1-5.19145-3.461q-2.57685-2.09205-5.47315-4.90975v36.21943a1.99121,1.99121,0,0,1-.322,1.12682,2.37261,2.37261,0,0,1-1.04634.80488,7.42829,7.42829,0,0,1-2.01219.48292,27.63651,27.63651,0,0,1-3.3.161,26.76975,26.76975,0,0,1-3.2195-.161,8.03458,8.03458,0,0,1-2.05243-.48292,2.09111,2.09111,0,0,1-1.04634-.80488,2.18852,2.18852,0,0,1-.28171-1.12682V1403.34884a2.43607,2.43607,0,0,1,.24146-1.16707,1.95209,1.95209,0,0,1,.96586-.76463,6.26639,6.26639,0,0,1,1.85121-.44268,31.53138,31.53138,0,0,1,5.5134,0,6.195,6.195,0,0,1,1.811.44268,2.22671,2.22671,0,0,1,1.0061.76463,2.15208,2.15208,0,0,1,.2817,1.16707v9.739a76.83023,76.83023,0,0,1,6.35853-5.87559,38.17561,38.17561,0,0,1,6.1573-4.14511,28.99242,28.99242,0,0,1,6.35852-2.49512,30.14592,30.14592,0,0,1,20.32312,2.21341,25.33185,25.33185,0,0,1,9.05486,8.37071,37.3822,37.3822,0,0,1,5.111,12.35485A66.88793,66.88793,0,0,1,1440.72459,1438.44144Zm-13.76338,1.52926a66.49929,66.49929,0,0,0-.85015-10.74509,31.11931,31.11931,0,0,0-2.91516-9.21583,17.2679,17.2679,0,0,0-5.54736-6.439,14.84668,14.84668,0,0,0-8.665-2.41463,17.42756,17.42756,0,0,0-5.10216.76463,20.93429,20.93429,0,0,0-5.10216,2.41463,36.30352,36.30352,0,0,0-5.42537,4.34633,67.0694,67.0694,0,0,0-5.99255,6.64023v28.81456a57.53894,57.53894,0,0,0,10.447,10.22193,17.51516,17.51516,0,0,0,10.36529,3.54145,15.12746,15.12746,0,0,0,8.62349-2.41462,18.22057,18.22057,0,0,0,5.83158-6.439,32.253,32.253,0,0,0,3.27987-9.01461A48.61381,48.61381,0,0,0,1426.96121,1439.9707Z"/><path class="cls-3" d="M1522.5,1436.42925q0,3.139-1.57705,4.46706a5.42811,5.42811,0,0,1-3.598,1.328h-47.70526a44.68618,44.68618,0,0,0,1.21235,10.86582,20.9411,20.9411,0,0,0,4.0445,8.29023,18.17889,18.17889,0,0,0,7.35958,5.31218,29.31887,29.31887,0,0,0,11.08088,1.85122,45.32965,45.32965,0,0,0,9.21961-.84512,54.52348,54.52348,0,0,0,6.99613-1.89146q2.95227-1.04508,4.85315-1.89146a7.9578,7.9578,0,0,1,2.8724-.84512,1.85,1.85,0,0,1,1.00987.2817,1.82285,1.82285,0,0,1,.68792.84512,5.90927,5.90927,0,0,1,.36345,1.56951,21.05041,21.05041,0,0,1,.122,2.45487,17.82012,17.82012,0,0,1-.08049,1.811q-.0811.76588-.20122,1.36829a3.51291,3.51291,0,0,1-.40243,1.08658,4.60967,4.60967,0,0,1-.72439.92561,11.80953,11.80953,0,0,1-2.61585,1.44877,38.05246,38.05246,0,0,1-5.63413,1.97195,78.8101,78.8101,0,0,1-8.00852,1.73048,58.55893,58.55893,0,0,1-9.69876.76463,44.90424,44.90424,0,0,1-15.65484-2.49511,29.02527,29.02527,0,0,1-11.3085-7.40486,31.64457,31.64457,0,0,1-6.92194-12.31461,57.37506,57.37506,0,0,1-2.33414-17.22434,54.273,54.273,0,0,1,2.41463-16.78167,35.54591,35.54591,0,0,1,6.96218-12.63655,30.41537,30.41537,0,0,1,10.98656-7.96828,36.026,36.026,0,0,1,14.40728-2.77682,34.856,34.856,0,0,1,14.528,2.73658,27.47575,27.47575,0,0,1,9.85973,7.36462,29.62047,29.62047,0,0,1,5.67438,10.86582,47.57322,47.57322,0,0,1,1.811,13.3207Zm-13.36094-3.94389q.24146-10.46214-4.657-16.41948-4.899-5.95545-14.53555-5.95608a19.239,19.239,0,0,0-8.665,1.85122,18.7536,18.7536,0,0,0-6.23653,4.90974,22.48285,22.48285,0,0,0-3.8873,7.12315,29.71628,29.71628,0,0,0-1.53807,8.49145Z"/></svg>