<svg id="Layer_1" data-name="Layer 1" xmlns="http://www.w3.org/2000/svg" viewBox="0 0 2048 2048"><defs><style>.cls-1,.cls-2{fill:none;stroke:#eee;stroke-miterlimit:10;stroke-width:64px;}.cls-2{stroke-dasharray:285.03091 218.22681;}.cls-3{fill:#eee;}</style></defs><polyline class="cls-1" points="2016 1888 2016 2016 1888 2016"/><line class="cls-2" x1="1669.77319" y1="2016" x2="269.1134" y2="2016"/><polyline class="cls-1" points="160 2016 32 2016 32 1888"/><line class="cls-2" x1="32" y1="1669.77319" x2="32" y2="269.1134"/><polyline class="cls-1" points="32 160 32 32 160 32"/><line class="cls-2" x1="378.22681" y1="32" x2="1778.8866" y2="32"/><polyline class="cls-1" points="1888 32 2016 32 2016 160"/><line class="cls-2" x1="2016" y1="378.22681" x2="2016" y2="1778.8866"/><path class="cls-3" d="M1308.52963,793.719,1097.90389,583.09327,1024,509.18938l-73.90389,73.90389L739.47039,793.719a33.44358,33.44358,0,0,0,0,47.29636l26.60753,26.6075a33.44363,33.44363,0,0,0,47.29636,0L973.09954,707.89759V1093.367a33.44365,33.44365,0,0,0,33.44356,33.4436h37.62877a33.44356,33.44356,0,0,0,33.44355-33.4436V710.61256l157.0103,157.01034a33.44363,33.44363,0,0,0,47.29636,0l26.60755-26.6075A33.44363,33.44363,0,0,0,1308.52963,793.719Z"/><path class="cls-3" d="M649.78105,1427.00669a66.2972,66.2972,0,0,1-3.14531,21.46858,38.98926,38.98926,0,0,1-9.17992,15.21453,37.92065,37.92065,0,0,1-14.81223,9.03363,64.91363,64.91363,0,0,1-20.92,2.999H581.68139a5.1801,5.1801,0,0,1-3.18188-1.13378q-1.50008-1.13321-1.49951-3.9865v-84.41139q0-2.85271,1.49951-3.9865a5.1871,5.1871,0,0,1,3.18188-1.13377h21.432q12.28866,0,20.77369,3.18188a37.89368,37.89368,0,0,1,14.22705,9.14335,39.07454,39.07454,0,0,1,8.70447,14.44649A57.927,57.927,0,0,1,649.78105,1427.00669Zm-13.23957.512a51.61714,51.61714,0,0,0-1.90181-14.3002,30.72168,30.72168,0,0,0-5.96147-11.44747,27.55925,27.55925,0,0,0-10.27712-7.53412q-6.21805-2.7053-16.01915-2.70643H589.58125v73.65881h12.947a44.91243,44.91243,0,0,0,15.28768-2.26755,25.21018,25.21018,0,0,0,10.38684-6.94894,30.22046,30.22046,0,0,0,6.25405-11.74006A59.37,59.37,0,0,0,636.54148,1427.51872Z"/><path class="cls-3" d="M706.25037,1412.37733q0,1.6098-.07315,2.70643a6.71525,6.71525,0,0,1-.29259,1.71895,2.505,2.505,0,0,1-.5486.95091,1.23639,1.23639,0,0,1-.91433.32916,4.04822,4.04822,0,0,1-1.42636-.32916q-.84177-.32916-1.90182-.65832-1.06121-.32916-2.37727-.62175a13.191,13.191,0,0,0-2.85273-.29259,9.25188,9.25188,0,0,0-3.58419.73147,14.002,14.002,0,0,0-3.69391,2.41385,30.07858,30.07858,0,0,0-4.05965,4.462q-2.12239,2.78071-4.68139,6.80265v43.3029a1.63557,1.63557,0,0,1-.29259.98748,2.28813,2.28813,0,0,1-.95091.69489,6.7505,6.7505,0,0,1-1.82867.43888,25.11564,25.11564,0,0,1-2.999.1463,24.32838,24.32838,0,0,1-2.92588-.1463,7.30161,7.30161,0,0,1-1.86524-.43888,1.997,1.997,0,0,1-.95091-.69489,1.79312,1.79312,0,0,1-.256-.98748v-65.83211a2.04093,2.04093,0,0,1,.21944-.98748,1.953,1.953,0,0,1,.87776-.73147,4.95865,4.95865,0,0,1,1.68238-.43888,26.52428,26.52428,0,0,1,2.70643-.10972q1.60809,0,2.66986.10972a4.3268,4.3268,0,0,1,1.6458.43888,2.32379,2.32379,0,0,1,.84119.73147,1.80819,1.80819,0,0,1,.256.98748v9.58223a51.53323,51.53323,0,0,1,5.0837-6.43692,28.01436,28.01436,0,0,1,4.49853-3.91335,13.925,13.925,0,0,1,4.20594-1.975,16.45711,16.45711,0,0,1,4.20594-.5486q.94977,0,2.15783.10972a20.1378,20.1378,0,0,1,2.52356.4023,22.08626,22.08626,0,0,1,2.37727.65832,5.036,5.036,0,0,1,1.49951.73147,2.07352,2.07352,0,0,1,.58518.6949,4.39841,4.39841,0,0,1,.256.84119,9.4211,9.4211,0,0,1,.14629,1.4995Q706.2498,1410.695,706.25037,1412.37733Z"/><path class="cls-3" d="M766.52332,1473.96692a1.54181,1.54181,0,0,1-.58518,1.31665,4.11228,4.11228,0,0,1-1.60922.65832,15.35137,15.35137,0,0,1-2.999.21944,16.65848,16.65848,0,0,1-3.03559-.21944,3.593,3.593,0,0,1-1.64581-.65832,1.63774,1.63774,0,0,1-.512-1.31665v-6.58321a32.50963,32.50963,0,0,1-9.61881,7.16839,25.50923,25.50923,0,0,1-11.228,2.56014,30.60352,30.60352,0,0,1-9.39936-1.35322,20.31161,20.31161,0,0,1-7.16839-3.91335,17.55044,17.55044,0,0,1-4.60824-6.29063,20.82019,20.82019,0,0,1-1.64581-8.485,19.62746,19.62746,0,0,1,2.26756-9.65538,18.85324,18.85324,0,0,1,6.51006-6.80265,32.01377,32.01377,0,0,1,10.38684-4.05965,64.52161,64.52161,0,0,1,13.82474-1.35321h9.07021v-5.12028a25.48229,25.48229,0,0,0-.80462-6.7295,11.54886,11.54886,0,0,0-2.59671-4.86426,11.16925,11.16925,0,0,0-4.64482-2.92587,21.65267,21.65267,0,0,0-7.02209-.98748,27.96882,27.96882,0,0,0-8.00957,1.06062,42.89325,42.89325,0,0,0-6.21748,2.3407q-2.671,1.28064-4.462,2.3407a6.157,6.157,0,0,1-2.66985,1.06063,1.79816,1.79816,0,0,1-1.02406-.29259,2.48258,2.48258,0,0,1-.768-.87776,4.50565,4.50565,0,0,1-.47545-1.49951,12.68058,12.68058,0,0,1-.1463-2.01154,12.82224,12.82224,0,0,1,.256-2.8893,4.18517,4.18517,0,0,1,1.24349-2.01153,15.96189,15.96189,0,0,1,3.40133-2.231,37.5,37.5,0,0,1,5.55915-2.3407,50.64887,50.64887,0,0,1,6.8758-1.75552,41.0851,41.0851,0,0,1,7.53412-.69489,39.55455,39.55455,0,0,1,12.06922,1.60923,19.53679,19.53679,0,0,1,8.04615,4.718,18.27491,18.27491,0,0,1,4.462,7.717,37.39344,37.39344,0,0,1,1.38979,10.75258Zm-11.99607-30.06332h-10.3137a38.93479,38.93479,0,0,0-8.63132.84118,17.78108,17.78108,0,0,0-6.07118,2.487,10.28258,10.28258,0,0,0-3.54762,3.94993,11.8545,11.8545,0,0,0-1.13378,5.30314,10.613,10.613,0,0,0,3.255,8.15587q3.25389,3.03617,9.10678,3.03559a16.94066,16.94066,0,0,0,8.81419-2.41384,37.97079,37.97079,0,0,0,8.5216-7.38783Z"/><path class="cls-3" d="M843.69318,1411.06069a7.37467,7.37467,0,0,1-.6949,3.69391,2.05612,2.05612,0,0,1-1.79209,1.13378h-9.43594a14.827,14.827,0,0,1,3.58419,5.81517,21.48648,21.48648,0,0,1,1.02406,6.61978,26.08044,26.08044,0,0,1-1.82867,10.09426,20.22373,20.22373,0,0,1-5.23,7.4244,23.39373,23.39373,0,0,1-8.08272,4.64482,31.78657,31.78657,0,0,1-10.38684,1.60923,27.042,27.042,0,0,1-7.64384-1.06063,15.93738,15.93738,0,0,1-5.59573-2.66986,11.44757,11.44757,0,0,0-2.15783,2.999,8.55508,8.55508,0,0,0-.84119,3.87678,5.02818,5.02818,0,0,0,2.37727,4.24251,11.49547,11.49547,0,0,0,6.3272,1.82867l17.1895.73147a35.56829,35.56829,0,0,1,8.99705,1.35321,22.3701,22.3701,0,0,1,7.09524,3.4379,15.84073,15.84073,0,0,1,4.68139,5.486,16.26961,16.26961,0,0,1,1.68238,7.57069,20.26568,20.26568,0,0,1-1.90182,8.63132,19.89754,19.89754,0,0,1-5.81517,7.205,29.19078,29.19078,0,0,1-9.98453,4.90084,50.95,50.95,0,0,1-14.33677,1.79209,58.577,58.577,0,0,1-13.56873-1.35321,29.43143,29.43143,0,0,1-9.17992-3.69391,14.31512,14.31512,0,0,1-5.19342-5.59573,15.70632,15.70632,0,0,1-1.60923-7.05867,18.61964,18.61964,0,0,1,.58517-4.68139,16.63628,16.63628,0,0,1,1.7921-4.31566,21.1664,21.1664,0,0,1,2.999-3.91336,39.03587,39.03587,0,0,1,4.1328-3.69391,12.8997,12.8997,0,0,1-5.30314-4.60825,11.19207,11.19207,0,0,1-1.719-5.998,17.00094,17.00094,0,0,1,1.82867-7.973,26.507,26.507,0,0,1,4.5351-6.29063,21.5245,21.5245,0,0,1-3.5842-6.10775,22.83835,22.83835,0,0,1-1.31664-8.229,25.50735,25.50735,0,0,1,1.90182-10.09426,21.41586,21.41586,0,0,1,5.26657-7.53412,23.10028,23.10028,0,0,1,8.08272-4.718,31.00343,31.00343,0,0,1,10.27712-1.6458,44.60514,44.60514,0,0,1,5.59573.32916,39.32416,39.32416,0,0,1,4.86426.91434h19.89593a1.99488,1.99488,0,0,1,1.86524,1.20692A8.416,8.416,0,0,1,843.69318,1411.06069Zm-12.80069,69.48945a7.403,7.403,0,0,0-3.47447-6.54664q-3.475-2.30412-9.39937-2.45042l-17.0432-.58517a31.08587,31.08587,0,0,0-3.8402,3.47447,18.99854,18.99854,0,0,0-2.37727,3.14531,10.381,10.381,0,0,0-1.20692,2.96245,13.6174,13.6174,0,0,0-.32917,2.999q0,4.754,4.82769,7.205,4.82769,2.44984,13.459,2.45042a33.82508,33.82508,0,0,0,9.17992-1.06063,17.6374,17.6374,0,0,0,5.96147-2.81615,10.32736,10.32736,0,0,0,3.255-4.02307A11.7871,11.7871,0,0,0,830.89249,1480.55014Zm-6.07118-52.15366q0-6.72894-3.69392-10.49657-3.69448-3.76649-10.49656-3.76706a14.76515,14.76515,0,0,0-6.10776,1.17035,11.95116,11.95116,0,0,0-4.31566,3.21846,13.60891,13.60891,0,0,0-2.56013,4.718,18.50585,18.50585,0,0,0-.84119,5.59573q0,6.5112,3.69391,10.24055,3.69277,3.73048,10.35027,3.73048a15.62913,15.62913,0,0,0,6.21748-1.13377,11.70322,11.70322,0,0,0,4.35223-3.14531,13.30549,13.30549,0,0,0,2.56014-4.64482A17.94147,17.94147,0,0,0,824.82131,1428.39648Z"/><path class="cls-3" d="M927.3,1469.06609a15.36077,15.36077,0,0,1-.29259,3.36475,3.77181,3.77181,0,0,1-.87776,1.82867,5.725,5.725,0,0,1-1.75552,1.0972,14.33575,14.33575,0,0,1-2.66986.84119q-1.50008.32916-3.18188.5486a26.00058,26.00058,0,0,1-3.36476.21944,25.35609,25.35609,0,0,1-8.77761-1.35321,14.17483,14.17483,0,0,1-5.998-4.09622,16.85538,16.85538,0,0,1-3.40132-6.94895,40.85373,40.85373,0,0,1-1.06063-9.91139V1416.181h-9.21649a1.973,1.973,0,0,1-1.75553-1.17034,8.16626,8.16626,0,0,1-.65832-3.80364,12.63047,12.63047,0,0,1,.18287-2.34069,6.677,6.677,0,0,1,.47545-1.57266,1.83636,1.83636,0,0,1,.768-.87776,2.202,2.202,0,0,1,1.06063-.256H895.92v-15.65342a1.84922,1.84922,0,0,1,.256-.9509,2.08314,2.08314,0,0,1,.95091-.76805,6.26893,6.26893,0,0,1,1.86525-.47545,24.32846,24.32846,0,0,1,2.92587-.14629,25.11594,25.11594,0,0,1,2.999.14629,5.8199,5.8199,0,0,1,1.82867.47545,2.39462,2.39462,0,0,1,.95091.76805,1.68848,1.68848,0,0,1,.29259.9509v15.65342h16.89691a2.00017,2.00017,0,0,1,1.024.256,2.138,2.138,0,0,1,.768.87776,5.02509,5.02509,0,0,1,.47546,1.57266A15.81317,15.81317,0,0,1,927.3,1411.207a8.16626,8.16626,0,0,1-.65832,3.80364,1.973,1.973,0,0,1-1.75552,1.17034H907.9892v36.71969q0,6.80265,2.01154,10.27712,2.011,3.47505,7.205,3.47448a12.40968,12.40968,0,0,0,2.999-.32916q1.31664-.32916,2.3407-.6949,1.02348-.36516,1.75552-.69489a3.253,3.253,0,0,1,1.31664-.32916,1.4192,1.4192,0,0,1,.6949.18286,1.22293,1.22293,0,0,1,.512.6949,8.565,8.565,0,0,1,.32916,1.38979A13.74236,13.74236,0,0,1,927.3,1469.06609Z"/><path class="cls-3" d="M1003.00687,1440.24626a49.31276,49.31276,0,0,1-2.12125,14.81222,32.68919,32.68919,0,0,1-6.3272,11.66691,28.67574,28.67574,0,0,1-10.53314,7.64384,36.60078,36.60078,0,0,1-14.66593,2.743,37.97769,37.97769,0,0,1-14.1539-2.41385,25.85283,25.85283,0,0,1-10.05768-7.02209,29.751,29.751,0,0,1-5.998-11.19146,51.91857,51.91857,0,0,1-1.975-14.92194,50.114,50.114,0,0,1,2.08468-14.81222,32.24,32.24,0,0,1,6.29062-11.66692,28.37835,28.37835,0,0,1,10.49657-7.60726,36.97765,36.97765,0,0,1,14.7025-2.70643,37.97769,37.97769,0,0,1,14.1539,2.41384,25.86135,25.86135,0,0,1,10.05769,7.02209,30.1836,30.1836,0,0,1,6.03461,11.19146A50.77275,50.77275,0,0,1,1003.00687,1440.24626Zm-12.5081.80461a49.16756,49.16756,0,0,0-.99662-10.09425,24.84416,24.84416,0,0,0-3.28475-8.33874,16.30442,16.30442,0,0,0-6.20033-5.66887,20.54192,20.54192,0,0,0-9.74224-2.08469,20.838,20.838,0,0,0-9.26335,1.90182,17.00449,17.00449,0,0,0-6.38435,5.37629,24.11414,24.11414,0,0,0-3.727,8.229,41.82824,41.82824,0,0,0-1.21721,10.38684,49.44734,49.44734,0,0,0,.99662,10.16741,23.94285,23.94285,0,0,0,3.32132,8.30216,16.6826,16.6826,0,0,0,6.23577,5.6323,20.54358,20.54358,0,0,0,9.74338,2.08468,20.87729,20.87729,0,0,0,9.22563-1.90181,17.03166,17.03166,0,0,0,6.42092-5.33972,23.21836,23.21836,0,0,0,3.69048-8.19244A43.36109,43.36109,0,0,0,990.49877,1441.05087Z"/><path class="cls-3" d="M1127.21011,1440.75828a43.85137,43.85137,0,0,1-2.52356,15.3974,31.502,31.502,0,0,1-7.205,11.44747,30.38565,30.38565,0,0,1-11.4109,7.09524,45.10836,45.10836,0,0,1-15.28768,2.41385,42.70636,42.70636,0,0,1-14.26362-2.26755,30.174,30.174,0,0,1-11.04516-6.69293A29.29651,29.29651,0,0,1,1058.379,1457.07a43.72984,43.72984,0,0,1-2.487-15.36083v-58.73687a1.80073,1.80073,0,0,1,.29259-1.024,1.95425,1.95425,0,0,1,1.024-.69489,11.15087,11.15087,0,0,1,1.90182-.43889,20.78749,20.78749,0,0,1,3.07216-.18286,21.12376,21.12376,0,0,1,2.999.18286,10.19017,10.19017,0,0,1,1.93839.43889,1.95276,1.95276,0,0,1,.98748.69489,1.80954,1.80954,0,0,1,.29259,1.024v57.20079a36.87222,36.87222,0,0,0,1.60923,11.48405,21.64637,21.64637,0,0,0,4.64482,8.15586,19.34544,19.34544,0,0,0,7.31468,4.90084,26.62,26.62,0,0,0,9.6188,1.6458,27.60538,27.60538,0,0,0,9.76509-1.60923,18.54219,18.54219,0,0,0,7.24154-4.82769,21.60264,21.60264,0,0,0,4.5351-7.973,35.47009,35.47009,0,0,0,1.57265-11.11831v-57.85911a1.80073,1.80073,0,0,1,.29259-1.024,1.95433,1.95433,0,0,1,1.024-.69489,11.13464,11.13464,0,0,1,1.93839-.43889,20.94777,20.94777,0,0,1,3.0356-.18286,20.33045,20.33045,0,0,1,2.96244.18286,10.16124,10.16124,0,0,1,1.90182.43889,2.18546,2.18546,0,0,1,1.024.69489,1.66041,1.66041,0,0,1,.32916,1.024Z"/><path class="cls-3" d="M1211.32892,1439.95367a59.27931,59.27931,0,0,1-1.86525,15.50712,33.80335,33.80335,0,0,1-5.486,11.66691,24.54242,24.54242,0,0,1-8.96048,7.38783,27.60425,27.60425,0,0,1-12.21551,2.59671,23.62891,23.62891,0,0,1-5.41286-.58518,20.67982,20.67982,0,0,1-4.86426-1.82867,28.24474,28.24474,0,0,1-4.718-3.14531q-2.34184-1.90125-4.974-4.46195v32.91605a1.80952,1.80952,0,0,1-.29259,1.024,2.15616,2.15616,0,0,1-.95091.73147,6.7505,6.7505,0,0,1-1.82867.43888,25.11582,25.11582,0,0,1-2.999.1463,24.32831,24.32831,0,0,1-2.92587-.1463,7.30161,7.30161,0,0,1-1.86524-.43888,1.90045,1.90045,0,0,1-.95091-.73147,1.98893,1.98893,0,0,1-.256-1.024v-91.94551a2.21377,2.21377,0,0,1,.21944-1.06063,1.774,1.774,0,0,1,.87776-.69489,5.695,5.695,0,0,1,1.68238-.40231,28.65525,28.65525,0,0,1,5.01055,0,5.63006,5.63006,0,0,1,1.6458.40231,2.02365,2.02365,0,0,1,.91434.69489,1.9558,1.9558,0,0,1,.256,1.06063v8.85076a69.82177,69.82177,0,0,1,5.7786-5.33971,34.69361,34.69361,0,0,1,5.59573-3.76706,26.34859,26.34859,0,0,1,5.77859-2.26755,27.39657,27.39657,0,0,1,18.46957,2.01153,23.02143,23.02143,0,0,1,8.229,7.60727,33.97257,33.97257,0,0,1,4.64482,11.228A60.7875,60.7875,0,0,1,1211.32892,1439.95367Zm-12.50811,1.38979a60.43376,60.43376,0,0,0-.77261-9.7651,28.28067,28.28067,0,0,0-2.64928-8.3753,15.69311,15.69311,0,0,0-5.04142-5.85175,13.49263,13.49263,0,0,0-7.87471-2.1944,15.838,15.838,0,0,0-4.63682.69489,19.02508,19.02508,0,0,0-4.63682,2.19441,32.99272,32.99272,0,0,0-4.93055,3.94992,60.95261,60.95261,0,0,0-5.446,6.03461v26.18655a52.29117,52.29117,0,0,0,9.49422,9.28964,15.91768,15.91768,0,0,0,9.41994,3.21846,13.74783,13.74783,0,0,0,7.837-2.1944,16.55893,16.55893,0,0,0,5.29971-5.85174,29.31158,29.31158,0,0,0,2.98073-8.19244A44.17975,44.17975,0,0,0,1198.82081,1441.34346Z"/><path class="cls-3" d="M1241.53854,1473.89378a1.63557,1.63557,0,0,1-.29259.98748,2.28813,2.28813,0,0,1-.95091.69489,6.7505,6.7505,0,0,1-1.82867.43888,25.11571,25.11571,0,0,1-2.999.1463,24.32831,24.32831,0,0,1-2.92587-.1463,7.30161,7.30161,0,0,1-1.86524-.43888,1.99693,1.99693,0,0,1-.95091-.69489,1.793,1.793,0,0,1-.256-.98748v-97.72411a1.989,1.989,0,0,1,.256-1.024,1.90045,1.90045,0,0,1,.95091-.73147,7.30161,7.30161,0,0,1,1.86524-.43888,24.32858,24.32858,0,0,1,2.92587-.14629,25.116,25.116,0,0,1,2.999.14629,6.7505,6.7505,0,0,1,1.82867.43888,2.15616,2.15616,0,0,1,.95091.73147,1.80954,1.80954,0,0,1,.29259,1.024Z"/><path class="cls-3" d="M1325.07216,1440.24626a49.31276,49.31276,0,0,1-2.12125,14.81222,32.689,32.689,0,0,1-6.3272,11.66691,28.67574,28.67574,0,0,1-10.53314,7.64384,36.60078,36.60078,0,0,1-14.66593,2.743,37.97769,37.97769,0,0,1-14.1539-2.41385,25.85291,25.85291,0,0,1-10.05768-7.02209,29.751,29.751,0,0,1-5.998-11.19146,51.91857,51.91857,0,0,1-1.975-14.92194,50.114,50.114,0,0,1,2.08468-14.81222,32.23987,32.23987,0,0,1,6.29063-11.66692,28.37823,28.37823,0,0,1,10.49656-7.60726,36.97765,36.97765,0,0,1,14.7025-2.70643,37.97775,37.97775,0,0,1,14.15391,2.41384,25.86139,25.86139,0,0,1,10.05768,7.02209,30.18345,30.18345,0,0,1,6.03461,11.19146A50.77275,50.77275,0,0,1,1325.07216,1440.24626Zm-12.5081.80461a49.16687,49.16687,0,0,0-.99662-10.09425,24.844,24.844,0,0,0-3.28475-8.33874,16.30434,16.30434,0,0,0-6.20033-5.66887,20.54192,20.54192,0,0,0-9.74224-2.08469,20.838,20.838,0,0,0-9.26335,1.90182,17.00449,17.00449,0,0,0-6.38435,5.37629,24.11414,24.11414,0,0,0-3.72705,8.229,41.82871,41.82871,0,0,0-1.21721,10.38684,49.448,49.448,0,0,0,.99662,10.16741,23.94267,23.94267,0,0,0,3.32133,8.30216,16.68249,16.68249,0,0,0,6.23576,5.6323,20.54358,20.54358,0,0,0,9.74338,2.08468,20.8773,20.8773,0,0,0,9.22564-1.90181,17.03163,17.03163,0,0,0,6.42091-5.33972,23.2182,23.2182,0,0,0,3.69049-8.19244A43.36161,43.36161,0,0,0,1312.56406,1441.05087Z"/><path class="cls-3" d="M1392.44035,1473.96692a1.54183,1.54183,0,0,1-.58517,1.31665,4.11239,4.11239,0,0,1-1.60923.65832,15.35137,15.35137,0,0,1-2.999.21944,16.65855,16.65855,0,0,1-3.03559-.21944,3.593,3.593,0,0,1-1.6458-.65832,1.63771,1.63771,0,0,1-.512-1.31665v-6.58321a32.50971,32.50971,0,0,1-9.6188,7.16839,25.50926,25.50926,0,0,1-11.228,2.56014,30.60354,30.60354,0,0,1-9.39937-1.35322,20.31148,20.31148,0,0,1-7.16838-3.91335,17.55046,17.55046,0,0,1-4.60825-6.29063,20.82019,20.82019,0,0,1-1.6458-8.485,19.62757,19.62757,0,0,1,2.26755-9.65538,18.85332,18.85332,0,0,1,6.51006-6.80265,32.01383,32.01383,0,0,1,10.38685-4.05965,64.52155,64.52155,0,0,1,13.82474-1.35321h9.0702v-5.12028a25.48273,25.48273,0,0,0-.80461-6.7295,11.549,11.549,0,0,0-2.59671-4.86426,11.16935,11.16935,0,0,0-4.64483-2.92587,21.65263,21.65263,0,0,0-7.02209-.98748,27.96892,27.96892,0,0,0-8.00957,1.06062,42.89414,42.89414,0,0,0-6.21748,2.3407q-2.671,1.28064-4.46195,2.3407a6.157,6.157,0,0,1-2.66986,1.06063,1.7981,1.7981,0,0,1-1.024-.29259,2.48248,2.48248,0,0,1-.768-.87776,4.50564,4.50564,0,0,1-.47546-1.49951,12.68063,12.68063,0,0,1-.14629-2.01154,12.82233,12.82233,0,0,1,.256-2.8893,4.18528,4.18528,0,0,1,1.2435-2.01153,15.96177,15.96177,0,0,1,3.40132-2.231,37.49969,37.49969,0,0,1,5.55916-2.3407,50.64849,50.64849,0,0,1,6.8758-1.75552,41.08508,41.08508,0,0,1,7.53411-.69489,39.55455,39.55455,0,0,1,12.06922,1.60923,19.53679,19.53679,0,0,1,8.04615,4.718,18.27481,18.27481,0,0,1,4.46195,7.717,37.39309,37.39309,0,0,1,1.38979,10.75258Zm-11.99607-30.06332h-10.3137a38.93485,38.93485,0,0,0-8.63132.84118,17.78125,17.78125,0,0,0-6.07118,2.487,10.28258,10.28258,0,0,0-3.54762,3.94993,11.85463,11.85463,0,0,0-1.13377,5.30314,10.613,10.613,0,0,0,3.255,8.15587q3.25389,3.03617,9.10677,3.03559a16.94061,16.94061,0,0,0,8.81419-2.41384,37.97079,37.97079,0,0,0,8.5216-7.38783Z"/><path class="cls-3" d="M1471,1473.89378a1.99728,1.99728,0,0,1-.256,1.024,1.73322,1.73322,0,0,1-.87777.6949,7.113,7.113,0,0,1-1.6458.4023,18.0202,18.0202,0,0,1-2.487.1463,18.6576,18.6576,0,0,1-2.56014-.1463,7.81128,7.81128,0,0,1-1.68237-.4023,1.93646,1.93646,0,0,1-.95091-.6949,1.7981,1.7981,0,0,1-.29259-1.024v-8.70447a44.469,44.469,0,0,1-10.78915,8.77761,24.5898,24.5898,0,0,1-12.25208,3.14532,25.314,25.314,0,0,1-12.36181-2.81616,23.25522,23.25522,0,0,1-8.30216-7.60726,33.50088,33.50088,0,0,1-4.64482-11.26461,61.68676,61.68676,0,0,1-1.46294-13.64187,59.34168,59.34168,0,0,1,1.82867-15.32425,34.13738,34.13738,0,0,1,5.41286-11.66691,24.16947,24.16947,0,0,1,8.88734-7.4244,27.53627,27.53627,0,0,1,12.25208-2.59671,22.33163,22.33163,0,0,1,10.56972,2.52356,37.51552,37.51552,0,0,1,9.4725,7.4244v-38.25577a2.05216,2.05216,0,0,1,.256-.98748,1.68735,1.68735,0,0,1,.98748-.73147,11.19138,11.19138,0,0,1,1.86524-.43888,18.8086,18.8086,0,0,1,2.8893-.18287,20.18585,20.18585,0,0,1,2.999.18287,9.21669,9.21669,0,0,1,1.82867.43888,2.07642,2.07642,0,0,1,.98748.73147,1.71511,1.71511,0,0,1,.32916.98748Zm-12.14237-46.30192a47.65918,47.65918,0,0,0-9.4725-9.25307,16.47209,16.47209,0,0,0-9.54566-3.18188,13.56121,13.56121,0,0,0-7.82671,2.1944,16.841,16.841,0,0,0-5.23,5.7786,27.61243,27.61243,0,0,0-2.92587,8.11929,46.47149,46.47149,0,0,0-.91434,9.2165,60.90318,60.90318,0,0,0,.768,9.72852,28.12382,28.12382,0,0,0,2.66986,8.44845,16.19876,16.19876,0,0,0,5.04713,5.92489,13.31067,13.31067,0,0,0,7.89985,2.231,16.32976,16.32976,0,0,0,4.64482-.65832,17.35729,17.35729,0,0,0,4.57168-2.19441,34.91889,34.91889,0,0,0,4.90083-3.98649,60.7133,60.7133,0,0,0,5.41286-6.03461Z"/></svg>